# Blender v2.80 (sub 51) OBJ File: ''
# www.blender.org
mtllib untitled.mtl
o Cube.029_Cube.000
v 2.412410 -3.719681 -4.989504
v -2.412772 -3.719681 -4.989320
v -2.129799 -3.741643 -4.404067
v 2.129490 -3.741643 -4.404223
v 2.412785 -3.719693 5.036335
v 3.001651 -3.719693 5.036306
v 2.649621 -3.741650 4.445778
v 2.129816 -3.741650 4.445796
v -2.649308 -9.131201 3.714853
v -2.649279 -9.131201 4.445971
v -2.649279 -4.072228 4.445973
v -2.649308 -4.072227 3.714860
v 2.129791 -3.741647 3.557005
v -2.129506 -3.741647 3.557172
v -2.129473 -3.741650 4.445956
v 2.649315 -4.637515 -3.713449
v 2.649601 -4.637517 3.714656
v 2.129791 -4.637517 3.714672
v 2.129509 -4.637515 -3.713429
v 2.129509 -4.072217 -3.713428
v 2.649315 -4.072217 -3.713447
v -2.129775 -4.637515 -3.713265
v -2.649580 -4.637515 -3.713250
v -2.649580 -4.072217 -3.713249
v -2.129775 -4.072217 -3.713265
v -2.412772 -4.094177 -4.989326
v 2.412410 -4.094177 -4.989504
v 2.129490 -4.072216 -4.404224
v -2.129799 -4.072216 -4.404068
v -2.649580 -3.741644 -3.713249
v -2.649605 -3.741643 -4.404047
v -3.001634 -3.719681 -4.989295
v -3.001605 -3.719681 -4.206722
v -3.001296 -3.719692 4.029662
v -3.001263 -3.719693 5.036536
v -2.649279 -3.741650 4.445974
v -2.649312 -3.741647 3.557181
v 3.001273 -3.719681 -4.989529
v 2.649295 -3.741643 -4.404244
v 3.001273 -4.094177 -4.989529
v -2.129775 -3.741644 -3.713265
v 2.129816 -4.637520 4.445794
v 2.129791 -4.072227 3.714672
v 2.129816 -4.072228 4.445796
v 2.649589 -3.741647 3.556990
v 2.649315 -3.741644 -3.713447
v 2.129509 -3.741644 -3.713428
v 2.129490 -4.637513 -4.404227
v -2.129799 -4.637513 -4.404068
v -2.129498 -4.072227 3.714835
v -2.129498 -4.637517 3.714835
v -2.649308 -4.637517 3.714859
v -2.129473 -4.637520 4.445952
v 2.649621 -9.131201 4.445776
v 2.649601 -9.131201 3.714655
v 2.649601 -4.072227 3.714656
v 2.649621 -4.072228 4.445778
v -2.649605 -4.072216 -4.404047
v -2.129799 -9.131194 -4.404079
v -2.649605 -9.131194 -4.404053
v -3.001263 -4.094185 5.036533
v -3.001296 -4.094183 4.208280
v -3.001605 -4.094180 -4.206725
v -3.001634 -4.094177 -4.989295
v 3.001610 -3.719692 4.029438
v 3.001305 -3.719681 -4.206946
v -2.412394 -3.719693 5.036507
v 2.649295 -4.072216 -4.404245
v 2.649295 -9.131194 -4.404261
v 2.129490 -9.131194 -4.404228
v 2.412785 -4.094185 5.036335
v 3.001651 -4.094185 5.036305
v -2.412394 -4.094185 5.036506
v -2.129473 -4.072228 4.445953
v 2.129791 -9.131201 3.714667
v 2.129816 -9.131201 4.445787
v -2.649580 -9.131194 -3.713250
v -2.129775 -9.131194 -3.713267
v 2.129509 -9.131194 -3.713430
v 2.649315 -9.131194 -3.713450
v -2.129473 -9.131201 4.445943
v -2.129498 -9.131201 3.714830
v 3.001618 -4.094183 4.208052
v 3.001305 -4.094180 -4.206946
vt 0.054477 0.052799
vt 0.258766 0.052799
vt 0.246786 0.084188
vt 0.066456 0.084188
vt 0.054477 0.590513
vt 0.029545 0.590513
vt 0.044449 0.558840
vt 0.066456 0.558840
vt 0.963252 0.849345
vt 0.963252 0.891345
vt 0.785652 0.891345
vt 0.785652 0.849345
vt 0.066456 0.511172
vt 0.246786 0.511172
vt 0.246786 0.558840
vt 0.694552 0.125045
vt 0.955252 0.125045
vt 0.955252 0.154945
vt 0.694552 0.154945
vt 0.975052 0.157545
vt 0.975052 0.187445
vt 0.955252 0.187445
vt 0.955252 0.157545
vt 0.975052 0.187445
vt 0.975052 0.217345
vt 0.955252 0.217345
vt 0.955252 0.187445
vt 0.512917 0.590513
vt 0.308628 0.590513
vt 0.320608 0.559123
vt 0.500937 0.559123
vt 0.268794 0.121238
vt 0.268794 0.084188
vt 0.283697 0.052799
vt 0.283697 0.094771
vt 0.283697 0.536511
vt 0.283697 0.590513
vt 0.268794 0.558840
vt 0.268794 0.511172
vt 0.029546 0.052798
vt 0.044449 0.084188
vt 0.537848 0.451189
vt 0.553704 0.451189
vt 0.553704 0.482771
vt 0.537848 0.482771
vt 0.246786 0.121238
vt 0.553704 0.741559
vt 0.537848 0.741559
vt 0.935152 0.615845
vt 0.960852 0.615845
vt 0.960852 0.648345
vt 0.935152 0.648345
vt 0.044449 0.511172
vt 0.044449 0.121238
vt 0.066456 0.121238
vt 0.935152 0.566545
vt 0.935152 0.606345
vt 0.785652 0.606345
vt 0.785652 0.566545
vt 0.073823 0.767955
vt 0.472213 0.767955
vt 0.472213 0.948285
vt 0.073823 0.948285
vt 0.694552 0.095145
vt 0.955252 0.095145
vt 0.955252 0.125045
vt 0.694552 0.125045
vt 0.785652 0.648345
vt 0.785652 0.606345
vt 0.935152 0.606345
vt 0.935152 0.648345
vt 0.785652 0.975445
vt 0.785652 0.933445
vt 0.963252 0.933445
vt 0.963252 0.975445
vt 0.963252 0.327445
vt 0.963252 0.357345
vt 0.785652 0.357345
vt 0.785652 0.327445
vt 0.522945 0.522073
vt 0.522945 0.123683
vt 0.522945 0.084471
vt 0.537848 0.052798
vt 0.537848 0.097220
vt 0.537848 0.548541
vt 0.537848 0.590512
vt 0.522945 0.559123
vt 0.029546 0.536511
vt 0.029546 0.094770
vt 0.258765 0.590513
vt 0.374528 0.123044
vt 0.386790 0.123044
vt 0.386790 0.155502
vt 0.386790 0.504517
vt 0.386790 0.538869
vt 0.374529 0.538869
vt 0.374529 0.497109
vt 0.374528 0.155502
vt 0.963252 0.357345
vt 0.963252 0.387245
vt 0.785652 0.387245
vt 0.785652 0.357345
vt 0.553704 0.773142
vt 0.537848 0.773142
vt 0.569559 0.482771
vt 0.553704 0.482771
vt 0.553704 0.451189
vt 0.569559 0.451189
vt 0.569559 0.773142
vt 0.553704 0.773142
vt 0.553704 0.741559
vt 0.569559 0.741559
vt 0.960852 0.615845
vt 0.935152 0.615845
vt 0.935152 0.583345
vt 0.960852 0.583345
vt 0.955252 0.249845
vt 0.955252 0.219945
vt 0.975052 0.219945
vt 0.975052 0.249845
vt 0.955252 0.285045
vt 0.694552 0.285045
vt 0.694552 0.252445
vt 0.955252 0.252445
vt 0.785652 0.933445
vt 0.785652 0.891345
vt 0.963252 0.891345
vt 0.963252 0.933445
vt 0.785652 0.447045
vt 0.785652 0.417145
vt 0.963252 0.417145
vt 0.963252 0.447045
vt 0.785652 0.506745
vt 0.785652 0.476945
vt 0.963252 0.476945
vt 0.963252 0.506745
vt 0.785652 0.727845
vt 0.785652 0.688045
vt 0.963252 0.688045
vt 0.963252 0.727845
vt 0.785652 0.849345
vt 0.785652 0.807245
vt 0.963252 0.807245
vt 0.963252 0.849345
vt 0.963252 0.506745
vt 0.963252 0.536645
vt 0.785652 0.536645
vt 0.785652 0.506745
vt 0.843952 0.062645
vt 0.993452 0.062645
vt 0.993452 0.095145
vt 0.843952 0.095145
vt 0.785652 0.417145
vt 0.785652 0.387245
vt 0.963252 0.387245
vt 0.963252 0.417145
vt 0.399051 0.538869
vt 0.386790 0.538869
vt 0.386790 0.504517
vt 0.386790 0.155502
vt 0.386790 0.123044
vt 0.399051 0.123044
vt 0.399051 0.155502
vt 0.399051 0.497109
vt 0.955252 0.154945
vt 0.955252 0.125045
vt 0.975052 0.125045
vt 0.975052 0.154945
vt 0.843952 0.095145
vt 0.694552 0.095145
vt 0.694552 0.062645
vt 0.843952 0.062645
vt 0.785652 0.767545
vt 0.785652 0.727845
vt 0.963252 0.727845
vt 0.963252 0.767545
vt 0.963252 0.767545
vt 0.963252 0.807245
vt 0.785652 0.807245
vt 0.785652 0.767545
vt 0.283697 0.052799
vt 0.308628 0.052798
vt 0.320608 0.084471
vt 0.298600 0.084471
vt 0.283697 0.590513
vt 0.298600 0.559123
vt 0.512917 0.052799
vt 0.500938 0.084471
vt 0.298600 0.123683
vt 0.298600 0.522074
vt 0.283697 0.548541
vt 0.283697 0.097220
vt 0.694552 0.219945
vt 0.694552 0.187445
vt 0.955252 0.187445
vt 0.955252 0.187445
vt 0.694552 0.187445
vt 0.694552 0.154945
vt 0.955252 0.154945
vt 0.694552 0.219945
vt 0.955252 0.219945
vt 0.955252 0.252445
vt 0.694552 0.252445
vt 0.785652 0.566545
vt 0.785652 0.536645
vt 0.963252 0.536645
vt 0.963252 0.566545
vt 0.955252 0.252445
vt 0.979452 0.252445
vt 0.979452 0.285045
vt 0.955252 0.285045
vt 0.843952 0.030145
vt 0.993452 0.030145
vt 0.993452 0.062645
vt 0.843952 0.062645
vt 0.963252 0.447045
vt 0.963252 0.476945
vt 0.785652 0.476945
vt 0.785652 0.447045
vt 0.963252 0.688045
vt 0.785652 0.688045
vt 0.785652 0.648345
vt 0.963252 0.648345
vt 0.935152 0.294945
vt 0.959452 0.294945
vt 0.959452 0.327445
vt 0.935152 0.327445
vt 0.935152 0.327445
vt 0.785652 0.327445
vt 0.785652 0.294945
vt 0.935152 0.294945
vn 0.0000 0.9993 0.0375
vn -0.0000 0.9993 -0.0372
vn -1.0000 -0.0000 0.0000
vn 0.0000 1.0000 0.0000
vn -0.0000 -1.0000 -0.0000
vn -0.0000 0.0000 -1.0000
vn 0.0000 -0.9993 0.0375
vn 0.0623 0.9981 -0.0000
vn 1.0000 0.0000 -0.0000
vn 0.0623 -0.9981 -0.0000
vn -0.0623 0.9981 0.0000
vn -0.0001 0.0000 -1.0000
vn 0.0000 -0.0000 1.0000
vn -0.0000 -0.9993 -0.0372
vn -0.0623 -0.9981 0.0000
usemtl Материал.007
s 1
f 1/1/1 2/2/1 3/3/1 4/4/1
f 5/5/2 6/6/2 7/7/2 8/8/2
f 9/9/3 10/10/3 11/11/3 12/12/3
f 8/8/4 13/13/4 14/14/4 15/15/4
f 16/16/5 17/17/5 18/18/5 19/19/5
f 16/20/6 19/21/6 20/22/6 21/23/6
f 22/24/6 23/25/6 24/26/6 25/27/6
f 26/28/7 27/29/7 28/30/7 29/31/7
f 30/32/8 31/33/8 32/34/8 33/35/8 34/36/8 35/37/8 36/38/8 37/39/8
f 38/40/1 1/1/1 4/4/1 39/41/1
f 38/42/6 40/43/6 27/44/6 1/45/6
f 14/14/4 41/46/4 30/32/4 37/39/4
f 26/47/6 2/48/6 1/45/6 27/44/6
f 42/49/9 18/50/9 43/51/9 44/52/9
f 45/53/4 46/54/4 47/55/4 13/13/4
f 48/56/5 19/57/5 22/58/5 49/59/5
f 46/54/4 39/41/4 4/4/4 47/55/4
f 20/60/5 43/61/5 50/62/5 25/63/5
f 22/64/5 51/65/5 52/66/5 23/67/5
f 18/68/5 42/69/5 53/70/5 51/71/5
f 54/72/9 55/73/9 56/74/9 57/75/9
f 58/76/6 29/77/6 59/78/6 60/79/6
f 24/80/10 12/81/10 11/82/10 61/83/10 62/84/10 63/85/10 64/86/10 58/87/10
f 45/53/11 7/7/11 6/6/11 65/88/11 66/89/11 38/40/11 39/41/11 46/54/11
f 35/37/2 67/90/2 15/15/2 36/38/2
f 41/46/4 3/3/4 31/33/4 30/32/4
f 13/13/4 47/55/4 41/46/4 14/14/4
f 32/91/3 64/92/3 63/93/3 62/94/3 61/95/3 35/96/3 34/97/3 33/98/3
f 28/99/12 68/100/12 69/101/12 70/102/12
f 2/48/6 26/47/6 64/103/6 32/104/6
f 5/105/13 71/106/13 72/107/13 6/108/13
f 35/109/13 61/110/13 73/111/13 67/112/13
f 51/113/3 53/114/3 74/115/3 50/116/3
f 18/117/13 17/118/13 56/119/13 43/120/13
f 19/121/3 18/122/3 43/123/3 20/124/3
f 75/125/3 76/126/3 44/127/3 43/128/3
f 77/129/13 78/130/13 25/131/13 24/132/13
f 79/133/13 80/134/13 21/135/13 20/136/13
f 24/137/3 58/138/3 60/139/3 77/140/3
f 81/141/9 82/142/9 50/143/9 74/144/9
f 10/145/13 81/146/13 74/147/13 11/148/13
f 18/149/6 51/150/6 50/151/6 43/152/6
f 67/90/2 5/5/2 8/8/2 15/15/2
f 76/153/13 54/154/13 57/155/13 44/156/13
f 6/157/9 72/158/9 83/159/9 84/160/9 40/161/9 38/162/9 66/163/9 65/164/9
f 52/165/13 51/166/13 50/167/13 12/168/13
f 29/169/6 28/170/6 48/171/6 49/172/6
f 80/173/9 69/174/9 68/175/9 21/176/9
f 78/177/9 59/178/9 29/179/9 25/180/9
f 2/2/1 32/34/1 31/33/1 3/3/1
f 64/86/7 26/28/7 29/31/7 58/87/7
f 72/181/14 71/182/14 44/183/14 57/184/14
f 27/29/7 40/185/7 68/186/7 28/30/7
f 71/182/14 73/187/14 74/188/14 44/183/14
f 73/187/14 61/83/14 11/82/14 74/188/14
f 57/184/15 56/189/15 21/190/15 68/186/15 40/185/15 84/191/15 83/192/15 72/181/15
f 7/7/4 45/53/4 13/13/4 8/8/4
f 15/15/4 14/14/4 37/39/4 36/38/4
f 47/55/4 4/4/4 3/3/4 41/46/4
f 17/118/9 16/193/9 21/194/9 56/195/9
f 23/196/3 52/197/3 12/198/3 24/199/3
f 51/200/9 22/201/9 25/202/9 50/203/9
f 55/204/6 75/205/6 43/206/6 56/207/6
f 19/208/9 48/209/9 28/210/9 20/211/9
f 22/212/13 19/213/13 20/214/13 25/215/13
f 82/216/6 9/217/6 12/218/6 50/219/6
f 79/220/3 20/221/3 28/222/3 70/223/3
f 67/112/13 73/111/13 71/106/13 5/105/13
f 49/224/3 22/225/3 25/226/3 29/227/3
f 53/228/13 42/229/13 44/230/13 74/231/13
